<?xml version="1.0" encoding="UTF-8" standalone="no"?>
<!DOCTYPE svg PUBLIC "-//W3C//DTD SVG 1.1//EN"
 "http://www.w3.org/Graphics/SVG/1.1/DTD/svg11.dtd">
<!-- Generated by graphviz version 2.40.1 (20161225.0304)
 -->
<!-- Title: %3 Pages: 1 -->
<svg width="1002pt" height="548pt"
 viewBox="0.00 0.00 1002.44 548.00" xmlns="http://www.w3.org/2000/svg" xmlns:xlink="http://www.w3.org/1999/xlink">
<g id="graph0" class="graph" transform="scale(1 1) rotate(0) translate(4 544)">
<title>%3</title>
<polygon fill="#ffffff" stroke="transparent" points="-4,4 -4,-544 998.4448,-544 998.4448,4 -4,4"/>
<!-- [root] aws_cloudwatch_event_rule.SSLExpirySchedule -->
<g id="node1" class="node">
<title>[root] aws_cloudwatch_event_rule.SSLExpirySchedule</title>
<polygon fill="none" stroke="#000000" points="736.3909,-324 443.527,-324 443.527,-288 736.3909,-288 736.3909,-324"/>
<text text-anchor="middle" x="589.959" y="-301.8" font-family="Times,serif" font-size="14.00" fill="#000000">aws_cloudwatch_event_rule.SSLExpirySchedule</text>
</g>
<!-- [root] aws_lambda_function.SSLExpiry -->
<g id="node5" class="node">
<title>[root] aws_lambda_function.SSLExpiry</title>
<polygon fill="none" stroke="#000000" points="670.8216,-252 465.0964,-252 465.0964,-216 670.8216,-216 670.8216,-252"/>
<text text-anchor="middle" x="567.959" y="-229.8" font-family="Times,serif" font-size="14.00" fill="#000000">aws_lambda_function.SSLExpiry</text>
</g>
<!-- [root] aws_cloudwatch_event_rule.SSLExpirySchedule&#45;&gt;[root] aws_lambda_function.SSLExpiry -->
<g id="edge1" class="edge">
<title>[root] aws_cloudwatch_event_rule.SSLExpirySchedule&#45;&gt;[root] aws_lambda_function.SSLExpiry</title>
<path fill="none" stroke="#000000" d="M584.4075,-287.8314C582.0287,-280.0463 579.1952,-270.7729 576.5557,-262.1347"/>
<polygon fill="#000000" stroke="#000000" points="579.8547,-260.954 573.5853,-252.4133 573.1603,-262.9996 579.8547,-260.954"/>
</g>
<!-- [root] aws_cloudwatch_event_target.SSLExpiry -->
<g id="node2" class="node">
<title>[root] aws_cloudwatch_event_target.SSLExpiry</title>
<polygon fill="none" stroke="#000000" points="994.4307,-396 743.4873,-396 743.4873,-360 994.4307,-360 994.4307,-396"/>
<text text-anchor="middle" x="868.959" y="-373.8" font-family="Times,serif" font-size="14.00" fill="#000000">aws_cloudwatch_event_target.SSLExpiry</text>
</g>
<!-- [root] aws_cloudwatch_event_target.SSLExpiry&#45;&gt;[root] aws_cloudwatch_event_rule.SSLExpirySchedule -->
<g id="edge2" class="edge">
<title>[root] aws_cloudwatch_event_target.SSLExpiry&#45;&gt;[root] aws_cloudwatch_event_rule.SSLExpirySchedule</title>
<path fill="none" stroke="#000000" d="M798.9156,-359.9243C759.6968,-349.8033 710.6447,-337.1447 669.9237,-326.6361"/>
<polygon fill="#000000" stroke="#000000" points="670.5885,-323.193 660.0312,-324.0831 668.8393,-329.971 670.5885,-323.193"/>
</g>
<!-- [root] aws_iam_policy_attachment.AWSLambdaBasicExecutionRole&#45;attachment -->
<g id="node3" class="node">
<title>[root] aws_iam_policy_attachment.AWSLambdaBasicExecutionRole&#45;attachment</title>
<polygon fill="none" stroke="#000000" points="435.877,-396 .041,-396 .041,-360 435.877,-360 435.877,-396"/>
<text text-anchor="middle" x="217.959" y="-373.8" font-family="Times,serif" font-size="14.00" fill="#000000">aws_iam_policy_attachment.AWSLambdaBasicExecutionRole&#45;attachment</text>
</g>
<!-- [root] aws_iam_role.SSLExpiryRole -->
<g id="node4" class="node">
<title>[root] aws_iam_role.SSLExpiryRole</title>
<polygon fill="none" stroke="#000000" points="408.1594,-180 221.7585,-180 221.7585,-144 408.1594,-144 408.1594,-180"/>
<text text-anchor="middle" x="314.959" y="-157.8" font-family="Times,serif" font-size="14.00" fill="#000000">aws_iam_role.SSLExpiryRole</text>
</g>
<!-- [root] aws_iam_policy_attachment.AWSLambdaBasicExecutionRole&#45;attachment&#45;&gt;[root] aws_iam_role.SSLExpiryRole -->
<g id="edge3" class="edge">
<title>[root] aws_iam_policy_attachment.AWSLambdaBasicExecutionRole&#45;attachment&#45;&gt;[root] aws_iam_role.SSLExpiryRole</title>
<path fill="none" stroke="#000000" d="M226.0623,-359.9555C243.0729,-322.0762 282.5889,-234.0818 302.7109,-189.274"/>
<polygon fill="#000000" stroke="#000000" points="305.9067,-190.7013 306.8105,-180.1451 299.521,-187.8336 305.9067,-190.7013"/>
</g>
<!-- [root] provider.aws -->
<g id="node7" class="node">
<title>[root] provider.aws</title>
<polygon fill="none" stroke="#000000" points="314.959,-108 236.3506,-90 314.959,-72 393.5673,-90 314.959,-108"/>
<text text-anchor="middle" x="314.959" y="-85.8" font-family="Times,serif" font-size="14.00" fill="#000000">provider.aws</text>
</g>
<!-- [root] aws_iam_role.SSLExpiryRole&#45;&gt;[root] provider.aws -->
<g id="edge4" class="edge">
<title>[root] aws_iam_role.SSLExpiryRole&#45;&gt;[root] provider.aws</title>
<path fill="none" stroke="#000000" d="M314.959,-143.8314C314.959,-136.131 314.959,-126.9743 314.959,-118.4166"/>
<polygon fill="#000000" stroke="#000000" points="318.4591,-118.4132 314.959,-108.4133 311.4591,-118.4133 318.4591,-118.4132"/>
</g>
<!-- [root] aws_lambda_function.SSLExpiry&#45;&gt;[root] aws_iam_role.SSLExpiryRole -->
<g id="edge5" class="edge">
<title>[root] aws_lambda_function.SSLExpiry&#45;&gt;[root] aws_iam_role.SSLExpiryRole</title>
<path fill="none" stroke="#000000" d="M504.443,-215.9243C469.1045,-205.8675 424.9619,-193.3052 388.1753,-182.8363"/>
<polygon fill="#000000" stroke="#000000" points="389.0773,-179.454 378.5011,-180.0831 387.1612,-186.1867 389.0773,-179.454"/>
</g>
<!-- [root] var.EXPIRY_BUFFER -->
<g id="node8" class="node">
<title>[root] var.EXPIRY_BUFFER</title>
<ellipse fill="none" stroke="#000000" cx="776.959" cy="-162" rx="114.5383" ry="18"/>
<text text-anchor="middle" x="776.959" y="-157.8" font-family="Times,serif" font-size="14.00" fill="#000000">[root] var.EXPIRY_BUFFER</text>
</g>
<!-- [root] aws_lambda_function.SSLExpiry&#45;&gt;[root] var.EXPIRY_BUFFER -->
<g id="edge6" class="edge">
<title>[root] aws_lambda_function.SSLExpiry&#45;&gt;[root] var.EXPIRY_BUFFER</title>
<path fill="none" stroke="#000000" d="M620.4287,-215.9243C650.5429,-205.55 688.3965,-192.5096 719.3352,-181.8513"/>
<polygon fill="#000000" stroke="#000000" points="720.804,-185.0472 729.1187,-178.4809 718.524,-178.4289 720.804,-185.0472"/>
</g>
<!-- [root] var.HOSTLIST -->
<g id="node9" class="node">
<title>[root] var.HOSTLIST</title>
<ellipse fill="none" stroke="#000000" cx="556.959" cy="-162" rx="87.4654" ry="18"/>
<text text-anchor="middle" x="556.959" y="-157.8" font-family="Times,serif" font-size="14.00" fill="#000000">[root] var.HOSTLIST</text>
</g>
<!-- [root] aws_lambda_function.SSLExpiry&#45;&gt;[root] var.HOSTLIST -->
<g id="edge7" class="edge">
<title>[root] aws_lambda_function.SSLExpiry&#45;&gt;[root] var.HOSTLIST</title>
<path fill="none" stroke="#000000" d="M565.1832,-215.8314C564.0068,-208.131 562.6078,-198.9743 561.3004,-190.4166"/>
<polygon fill="#000000" stroke="#000000" points="564.7423,-189.7699 559.7721,-180.4133 557.8226,-190.8272 564.7423,-189.7699"/>
</g>
<!-- [root] aws_lambda_permission.SSLExpirySchedule -->
<g id="node6" class="node">
<title>[root] aws_lambda_permission.SSLExpirySchedule</title>
<polygon fill="none" stroke="#000000" points="725.9252,-396 453.9928,-396 453.9928,-360 725.9252,-360 725.9252,-396"/>
<text text-anchor="middle" x="589.959" y="-373.8" font-family="Times,serif" font-size="14.00" fill="#000000">aws_lambda_permission.SSLExpirySchedule</text>
</g>
<!-- [root] aws_lambda_permission.SSLExpirySchedule&#45;&gt;[root] aws_cloudwatch_event_rule.SSLExpirySchedule -->
<g id="edge8" class="edge">
<title>[root] aws_lambda_permission.SSLExpirySchedule&#45;&gt;[root] aws_cloudwatch_event_rule.SSLExpirySchedule</title>
<path fill="none" stroke="#000000" d="M589.959,-359.8314C589.959,-352.131 589.959,-342.9743 589.959,-334.4166"/>
<polygon fill="#000000" stroke="#000000" points="593.4591,-334.4132 589.959,-324.4133 586.4591,-334.4133 593.4591,-334.4132"/>
</g>
<!-- [root] var.AWS_REGION -->
<g id="node12" class="node">
<title>[root] var.AWS_REGION</title>
<ellipse fill="none" stroke="#000000" cx="314.959" cy="-18" rx="102.4934" ry="18"/>
<text text-anchor="middle" x="314.959" y="-13.8" font-family="Times,serif" font-size="14.00" fill="#000000">[root] var.AWS_REGION</text>
</g>
<!-- [root] provider.aws&#45;&gt;[root] var.AWS_REGION -->
<g id="edge15" class="edge">
<title>[root] provider.aws&#45;&gt;[root] var.AWS_REGION</title>
<path fill="none" stroke="#000000" d="M314.959,-71.8314C314.959,-64.131 314.959,-54.9743 314.959,-46.4166"/>
<polygon fill="#000000" stroke="#000000" points="318.4591,-46.4132 314.959,-36.4133 311.4591,-46.4133 318.4591,-46.4132"/>
</g>
<!-- [root] meta.count&#45;boundary (count boundary fixup) -->
<g id="node10" class="node">
<title>[root] meta.count&#45;boundary (count boundary fixup)</title>
<ellipse fill="none" stroke="#000000" cx="414.959" cy="-450" rx="191.6931" ry="18"/>
<text text-anchor="middle" x="414.959" y="-445.8" font-family="Times,serif" font-size="14.00" fill="#000000">[root] meta.count&#45;boundary (count boundary fixup)</text>
</g>
<!-- [root] meta.count&#45;boundary (count boundary fixup)&#45;&gt;[root] aws_cloudwatch_event_target.SSLExpiry -->
<g id="edge9" class="edge">
<title>[root] meta.count&#45;boundary (count boundary fixup)&#45;&gt;[root] aws_cloudwatch_event_target.SSLExpiry</title>
<path fill="none" stroke="#000000" d="M512.6322,-434.51C580.707,-423.714 672.0678,-409.225 745.2353,-397.6214"/>
<polygon fill="#000000" stroke="#000000" points="746.1062,-401.0271 755.4345,-396.0039 745.0097,-394.1135 746.1062,-401.0271"/>
</g>
<!-- [root] meta.count&#45;boundary (count boundary fixup)&#45;&gt;[root] aws_iam_policy_attachment.AWSLambdaBasicExecutionRole&#45;attachment -->
<g id="edge10" class="edge">
<title>[root] meta.count&#45;boundary (count boundary fixup)&#45;&gt;[root] aws_iam_policy_attachment.AWSLambdaBasicExecutionRole&#45;attachment</title>
<path fill="none" stroke="#000000" d="M367.0193,-432.4789C339.9033,-422.5685 305.7736,-410.0947 277.0166,-399.5845"/>
<polygon fill="#000000" stroke="#000000" points="278.0819,-396.2475 267.4881,-396.102 275.679,-402.8221 278.0819,-396.2475"/>
</g>
<!-- [root] meta.count&#45;boundary (count boundary fixup)&#45;&gt;[root] aws_lambda_permission.SSLExpirySchedule -->
<g id="edge11" class="edge">
<title>[root] meta.count&#45;boundary (count boundary fixup)&#45;&gt;[root] aws_lambda_permission.SSLExpirySchedule</title>
<path fill="none" stroke="#000000" d="M457.7688,-432.3868C481.5461,-422.6042 511.3419,-410.3453 536.6235,-399.9437"/>
<polygon fill="#000000" stroke="#000000" points="538.1538,-403.0989 546.0699,-396.0572 535.4903,-396.6253 538.1538,-403.0989"/>
</g>
<!-- [root] provider.aws (close) -->
<g id="node11" class="node">
<title>[root] provider.aws (close)</title>
<ellipse fill="none" stroke="#000000" cx="728.959" cy="-450" rx="104.3276" ry="18"/>
<text text-anchor="middle" x="728.959" y="-445.8" font-family="Times,serif" font-size="14.00" fill="#000000">[root] provider.aws (close)</text>
</g>
<!-- [root] provider.aws (close)&#45;&gt;[root] aws_cloudwatch_event_target.SSLExpiry -->
<g id="edge12" class="edge">
<title>[root] provider.aws (close)&#45;&gt;[root] aws_cloudwatch_event_target.SSLExpiry</title>
<path fill="none" stroke="#000000" d="M762.137,-432.937C780.789,-423.3446 804.3169,-411.2445 824.5413,-400.8434"/>
<polygon fill="#000000" stroke="#000000" points="826.2796,-403.8852 833.5717,-396.1992 823.0781,-397.6602 826.2796,-403.8852"/>
</g>
<!-- [root] provider.aws (close)&#45;&gt;[root] aws_iam_policy_attachment.AWSLambdaBasicExecutionRole&#45;attachment -->
<g id="edge13" class="edge">
<title>[root] provider.aws (close)&#45;&gt;[root] aws_iam_policy_attachment.AWSLambdaBasicExecutionRole&#45;attachment</title>
<path fill="none" stroke="#000000" d="M653.0164,-437.6562C640.6382,-435.7152 627.9472,-433.7678 615.959,-432 533.5989,-419.8548 441.4948,-407.2929 366.6484,-397.3446"/>
<polygon fill="#000000" stroke="#000000" points="367.0474,-393.867 356.6738,-396.0207 366.1264,-400.8061 367.0474,-393.867"/>
</g>
<!-- [root] provider.aws (close)&#45;&gt;[root] aws_lambda_permission.SSLExpirySchedule -->
<g id="edge14" class="edge">
<title>[root] provider.aws (close)&#45;&gt;[root] aws_lambda_permission.SSLExpirySchedule</title>
<path fill="none" stroke="#000000" d="M695.665,-432.7542C677.1383,-423.1576 653.8493,-411.0943 633.8496,-400.7347"/>
<polygon fill="#000000" stroke="#000000" points="635.4103,-397.6015 624.921,-396.1098 632.1907,-403.8171 635.4103,-397.6015"/>
</g>
<!-- [root] root -->
<g id="node13" class="node">
<title>[root] root</title>
<ellipse fill="none" stroke="#000000" cx="571.959" cy="-522" rx="46.8976" ry="18"/>
<text text-anchor="middle" x="571.959" y="-517.8" font-family="Times,serif" font-size="14.00" fill="#000000">[root] root</text>
</g>
<!-- [root] root&#45;&gt;[root] meta.count&#45;boundary (count boundary fixup) -->
<g id="edge16" class="edge">
<title>[root] root&#45;&gt;[root] meta.count&#45;boundary (count boundary fixup)</title>
<path fill="none" stroke="#000000" d="M541.6878,-508.1177C519.3082,-497.8544 488.3901,-483.6754 462.6957,-471.892"/>
<polygon fill="#000000" stroke="#000000" points="464.0399,-468.658 453.4911,-467.6708 461.1219,-475.0208 464.0399,-468.658"/>
</g>
<!-- [root] root&#45;&gt;[root] provider.aws (close) -->
<g id="edge17" class="edge">
<title>[root] root&#45;&gt;[root] provider.aws (close)</title>
<path fill="none" stroke="#000000" d="M602.2302,-508.1177C625.0859,-497.6361 656.8473,-483.0703 682.8551,-471.1432"/>
<polygon fill="#000000" stroke="#000000" points="684.5187,-474.2308 692.1495,-466.8808 681.6007,-467.868 684.5187,-474.2308"/>
</g>
</g>
</svg>
